<svg width="638" height="63" viewBox="0 0 638 63" fill="none" xmlns="http://www.w3.org/2000/svg">
<g clip-path="url(#clip0_1_2)" filter="url(#filter0_d_1_2)">
<rect width="630" height="55" transform="translate(4)" fill="white"/>
<path d="M6.28564 8.65674H13.998L24.7866 34.8481L35.5752 8.65674H43.2876L28.2363 43H21.3369L6.28564 8.65674ZM60.1626 8.65674H67.5454L84.1567 43H76.8398L74.0933 37.2212H54.0322L51.3735 43H44.0347L60.1626 8.65674ZM71.3467 31.4863L63.9199 15.8857L56.6909 31.4863H71.3467ZM89.4521 8.65674H96.4175L117.819 19.8628V8.65674H124.784V43H117.819V27.2456L96.4175 16.1055V43H89.4521V8.65674ZM133.617 8.65674H140.626V43H133.617V8.65674ZM149.525 8.65674H156.491V36.8916H176.464V43H149.525V8.65674ZM183.231 8.65674H190.197V36.8916H210.17V43H183.231V8.65674ZM228.649 8.65674H236.032L252.643 43H245.326L242.58 37.2212H222.519L219.86 43H212.521L228.649 8.65674ZM239.833 31.4863L232.406 15.8857L225.177 31.4863H239.833ZM332.953 8.65674H351.059C353.695 8.65674 355.98 8.94238 357.914 9.51367C359.848 10.085 361.452 10.9126 362.726 11.9966C364 13.0659 364.945 14.377 365.561 15.9297C366.19 17.4824 366.505 19.2329 366.505 21.1812C366.505 23.0122 366.198 24.7041 365.583 26.2568C364.967 27.8096 364.022 29.1572 362.748 30.2998C361.488 31.4277 359.892 32.314 357.958 32.9585C356.024 33.5884 353.739 33.9033 351.103 33.9033L339.918 33.8813V43H332.953V8.65674ZM351.234 27.8608C352.553 27.8608 353.703 27.707 354.684 27.3994C355.68 27.0771 356.508 26.6304 357.167 26.0591C357.841 25.4731 358.339 24.77 358.661 23.9497C358.998 23.1147 359.167 22.1919 359.167 21.1812C359.167 19.145 358.5 17.563 357.167 16.4351C355.849 15.2925 353.871 14.7212 351.234 14.7212H339.918V27.8608H351.234ZM374.13 8.65674H391.598C394.235 8.65674 396.52 8.93506 398.454 9.4917C400.387 10.0337 401.991 10.8247 403.266 11.8647C404.54 12.9048 405.485 14.1719 406.1 15.666C406.73 17.1602 407.045 18.8521 407.045 20.7417C407.045 22.0161 406.891 23.2319 406.583 24.3892C406.276 25.5317 405.8 26.5864 405.155 27.5532C404.525 28.52 403.727 29.3843 402.76 30.146C401.793 30.8931 400.658 31.5156 399.354 32.0137L406.825 43H398.3L391.84 33.2441H391.642L381.095 33.2222V43H374.13V8.65674ZM391.774 27.2017C393.092 27.2017 394.242 27.0479 395.224 26.7402C396.22 26.4326 397.047 26.0005 397.707 25.4438C398.38 24.8872 398.878 24.2134 399.201 23.4224C399.538 22.6167 399.706 21.7231 399.706 20.7417C399.706 18.8228 399.047 17.3433 397.729 16.3032C396.41 15.2485 394.425 14.7212 391.774 14.7212H381.095V27.2017H391.774ZM413.285 25.7295C413.285 23.1367 413.761 20.7637 414.713 18.6104C415.666 16.457 416.999 14.6113 418.712 13.0732C420.441 11.5205 422.506 10.3193 424.909 9.46973C427.326 8.62012 429.999 8.19531 432.929 8.19531C435.844 8.19531 438.51 8.62012 440.927 9.46973C443.344 10.3193 445.409 11.5205 447.123 13.0732C448.852 14.6113 450.192 16.457 451.144 18.6104C452.096 20.7637 452.572 23.1367 452.572 25.7295C452.572 28.3369 452.096 30.7319 451.144 32.9146C450.192 35.0825 448.852 36.9502 447.123 38.5176C445.409 40.085 443.344 41.3081 440.927 42.187C438.51 43.0513 435.844 43.4834 432.929 43.4834C429.999 43.4834 427.326 43.0513 424.909 42.187C422.506 41.3081 420.441 40.085 418.712 38.5176C416.999 36.9502 415.666 35.0825 414.713 32.9146C413.761 30.7319 413.285 28.3369 413.285 25.7295ZM420.25 25.7295C420.25 27.502 420.565 29.0986 421.195 30.5195C421.84 31.9404 422.726 33.1562 423.854 34.167C424.997 35.1631 426.337 35.9321 427.875 36.4741C429.428 37.0161 431.112 37.2871 432.929 37.2871C434.745 37.2871 436.422 37.0161 437.96 36.4741C439.513 35.9321 440.854 35.1631 441.981 34.167C443.109 33.1562 443.996 31.9404 444.64 30.5195C445.285 29.0986 445.607 27.502 445.607 25.7295C445.607 23.957 445.285 22.3677 444.64 20.9614C443.996 19.5552 443.109 18.3687 441.981 17.4019C440.854 16.4204 439.513 15.6733 437.96 15.1606C436.422 14.6479 434.745 14.3916 432.929 14.3916C431.112 14.3916 429.428 14.6479 427.875 15.1606C426.337 15.6733 424.997 16.4204 423.854 17.4019C422.726 18.3687 421.84 19.5552 421.195 20.9614C420.565 22.3677 420.25 23.957 420.25 25.7295ZM453.693 48.6909C454.704 48.0757 455.568 47.4312 456.286 46.7573C457.018 46.0835 457.619 45.3364 458.087 44.5161C458.556 43.7104 458.9 42.8096 459.12 41.8135C459.34 40.8027 459.45 39.6602 459.45 38.3857V8.65674H466.415V37.1333C466.415 38.6567 466.349 40.0483 466.217 41.3081C466.085 42.5532 465.866 43.6958 465.558 44.7358C465.265 45.7905 464.862 46.7573 464.35 47.6362C463.852 48.5151 463.229 49.3501 462.482 50.1411C461.75 50.9321 460.878 51.6938 459.867 52.4263C458.871 53.1587 457.714 53.8984 456.396 54.6455L453.693 48.6909ZM475.336 8.65674H504.582V14.7651H482.301V21.6206H502.033V27.3555H482.301V36.9136H505.043V43H475.336V8.65674ZM510.69 25.6196C510.69 23.1733 511.151 20.8955 512.074 18.7861C512.997 16.6621 514.33 14.8237 516.073 13.271C517.831 11.7036 519.97 10.4731 522.489 9.57959C525.023 8.68604 527.887 8.23926 531.081 8.23926C533.878 8.23926 536.442 8.5249 538.771 9.09619C541.115 9.65283 543.29 10.5098 545.297 11.667L542.089 16.9404C541.488 16.5449 540.792 16.1934 540.001 15.8857C539.225 15.5781 538.39 15.3218 537.497 15.1167C536.618 14.897 535.702 14.7285 534.75 14.6113C533.812 14.4941 532.882 14.4355 531.959 14.4355C529.733 14.4355 527.748 14.7139 526.005 15.2705C524.262 15.8125 522.79 16.5815 521.588 17.5776C520.402 18.5591 519.494 19.7383 518.864 21.1152C518.249 22.4775 517.941 23.979 517.941 25.6196C517.941 27.3188 518.263 28.8789 518.908 30.2998C519.552 31.7207 520.482 32.9512 521.698 33.9912C522.929 35.0166 524.423 35.8223 526.181 36.4082C527.953 36.9795 529.953 37.2651 532.179 37.2651C533.19 37.2651 534.193 37.1919 535.189 37.0454C536.186 36.8989 537.145 36.7012 538.068 36.4521C539.005 36.1885 539.906 35.8809 540.771 35.5293C541.635 35.1631 542.44 34.7676 543.188 34.3428L546.396 39.6162C544.521 40.8174 542.353 41.7622 539.892 42.4507C537.431 43.1245 534.816 43.4614 532.047 43.4614C528.517 43.4614 525.419 43.0073 522.753 42.0991C520.087 41.1763 517.86 39.9165 516.073 38.3198C514.286 36.7085 512.938 34.8188 512.03 32.6509C511.137 30.4683 510.69 28.1245 510.69 25.6196ZM564.435 14.7651H551.757V8.65674H584.079V14.7651H571.4V43H564.435V14.7651ZM593.131 32.7827C594.376 33.4858 595.636 34.123 596.911 34.6943C598.2 35.251 599.533 35.7271 600.91 36.1226C602.287 36.5034 603.729 36.7964 605.238 37.0015C606.762 37.2065 608.38 37.3091 610.094 37.3091C612.16 37.3091 613.917 37.1772 615.368 36.9136C616.818 36.6353 617.997 36.2617 618.905 35.793C619.828 35.3096 620.495 34.7383 620.905 34.0791C621.33 33.4199 621.542 32.7021 621.542 31.9258C621.542 30.6807 621.022 29.6992 619.982 28.9814C618.942 28.249 617.338 27.8828 615.17 27.8828C614.218 27.8828 613.214 27.9487 612.16 28.0806C611.105 28.1978 610.036 28.3296 608.952 28.4761C607.882 28.6226 606.82 28.7617 605.766 28.8936C604.726 29.0107 603.744 29.0693 602.821 29.0693C601.283 29.0693 599.804 28.8716 598.383 28.4761C596.977 28.0806 595.724 27.4873 594.625 26.6963C593.542 25.9053 592.677 24.9165 592.033 23.73C591.388 22.5435 591.066 21.1592 591.066 19.5771C591.066 18.6396 591.19 17.7095 591.439 16.7866C591.703 15.8638 592.113 14.9849 592.67 14.1499C593.241 13.3003 593.974 12.5166 594.867 11.7988C595.761 11.0664 596.837 10.4365 598.097 9.90918C599.372 9.38184 600.836 8.97168 602.492 8.67871C604.162 8.37109 606.059 8.21729 608.183 8.21729C609.721 8.21729 611.266 8.30518 612.819 8.48096C614.372 8.64209 615.88 8.87646 617.345 9.18408C618.825 9.4917 620.246 9.86523 621.608 10.3047C622.97 10.7295 624.237 11.2056 625.409 11.7329L622.355 17.3579C621.388 16.9331 620.348 16.5449 619.235 16.1934C618.122 15.8271 616.957 15.5122 615.741 15.2485C614.525 14.9849 613.266 14.7798 611.962 14.6333C610.673 14.4722 609.354 14.3916 608.007 14.3916C606.088 14.3916 604.506 14.5308 603.261 14.8091C602.03 15.0874 601.049 15.4463 600.316 15.8857C599.584 16.3105 599.071 16.7939 598.778 17.3359C598.5 17.8633 598.361 18.3906 598.361 18.918C598.361 19.9434 598.822 20.7856 599.745 21.4448C600.668 22.0894 602.074 22.4116 603.964 22.4116C604.726 22.4116 605.597 22.3604 606.579 22.2578C607.575 22.1406 608.615 22.0161 609.699 21.8843C610.797 21.7524 611.911 21.6353 613.039 21.5327C614.181 21.4155 615.287 21.3569 616.356 21.3569C618.378 21.3569 620.165 21.584 621.718 22.0381C623.285 22.4922 624.596 23.144 625.651 23.9937C626.706 24.8286 627.504 25.8467 628.046 27.0479C628.588 28.2344 628.859 29.5674 628.859 31.0469C628.859 33.0244 628.397 34.7896 627.475 36.3423C626.566 37.8804 625.263 39.1841 623.563 40.2534C621.879 41.3081 619.843 42.1138 617.455 42.6704C615.067 43.2124 612.409 43.4834 609.479 43.4834C607.545 43.4834 605.656 43.3589 603.81 43.1099C601.964 42.8755 600.192 42.5386 598.493 42.0991C596.808 41.645 595.197 41.1104 593.659 40.4951C592.135 39.8652 590.722 39.1768 589.418 38.4297L593.131 32.7827Z" fill="black"/>
<path d="M251.369 48.6909C252.379 48.0757 253.244 47.4312 253.961 46.7573C254.694 46.0835 255.294 45.3364 255.763 44.5161C256.232 43.7104 256.576 42.8096 256.796 41.8135C257.016 40.8027 257.125 39.6602 257.125 38.3857V8.65674H264.091V37.1333C264.091 38.6567 264.025 40.0483 263.893 41.3081C263.761 42.5532 263.542 43.6958 263.234 44.7358C262.941 45.7905 262.538 46.7573 262.025 47.6362C261.527 48.5151 260.905 49.3501 260.158 50.1411C259.425 50.9321 258.554 51.6938 257.543 52.4263C256.547 53.1587 255.39 53.8984 254.071 54.6455L251.369 48.6909ZM274.616 32.7827C275.861 33.4858 277.121 34.123 278.395 34.6943C279.684 35.251 281.017 35.7271 282.394 36.1226C283.771 36.5034 285.214 36.7964 286.723 37.0015C288.246 37.2065 289.865 37.3091 291.579 37.3091C293.644 37.3091 295.402 37.1772 296.852 36.9136C298.302 36.6353 299.481 36.2617 300.39 35.793C301.312 35.3096 301.979 34.7383 302.389 34.0791C302.814 33.4199 303.026 32.7021 303.026 31.9258C303.026 30.6807 302.506 29.6992 301.466 28.9814C300.426 28.249 298.822 27.8828 296.654 27.8828C295.702 27.8828 294.699 27.9487 293.644 28.0806C292.589 28.1978 291.52 28.3296 290.436 28.4761C289.367 28.6226 288.305 28.7617 287.25 28.8936C286.21 29.0107 285.229 29.0693 284.306 29.0693C282.768 29.0693 281.288 28.8716 279.867 28.4761C278.461 28.0806 277.208 27.4873 276.11 26.6963C275.026 25.9053 274.162 24.9165 273.517 23.73C272.873 22.5435 272.55 21.1592 272.55 19.5771C272.55 18.6396 272.675 17.7095 272.924 16.7866C273.188 15.8638 273.598 14.9849 274.154 14.1499C274.726 13.3003 275.458 12.5166 276.352 11.7988C277.245 11.0664 278.322 10.4365 279.582 9.90918C280.856 9.38184 282.321 8.97168 283.976 8.67871C285.646 8.37109 287.543 8.21729 289.667 8.21729C291.205 8.21729 292.75 8.30518 294.303 8.48096C295.856 8.64209 297.365 8.87646 298.83 9.18408C300.309 9.4917 301.73 9.86523 303.092 10.3047C304.455 10.7295 305.722 11.2056 306.894 11.7329L303.839 17.3579C302.873 16.9331 301.833 16.5449 300.719 16.1934C299.606 15.8271 298.441 15.5122 297.226 15.2485C296.01 14.9849 294.75 14.7798 293.446 14.6333C292.157 14.4722 290.839 14.3916 289.491 14.3916C287.572 14.3916 285.99 14.5308 284.745 14.8091C283.515 15.0874 282.533 15.4463 281.801 15.8857C281.068 16.3105 280.556 16.7939 280.263 17.3359C279.984 17.8633 279.845 18.3906 279.845 18.918C279.845 19.9434 280.307 20.7856 281.229 21.4448C282.152 22.0894 283.559 22.4116 285.448 22.4116C286.21 22.4116 287.082 22.3604 288.063 22.2578C289.059 22.1406 290.099 22.0161 291.183 21.8843C292.282 21.7524 293.395 21.6353 294.523 21.5327C295.666 21.4155 296.771 21.3569 297.841 21.3569C299.862 21.3569 301.649 21.584 303.202 22.0381C304.77 22.4922 306.081 23.144 307.135 23.9937C308.19 24.8286 308.988 25.8467 309.53 27.0479C310.072 28.2344 310.343 29.5674 310.343 31.0469C310.343 33.0244 309.882 34.7896 308.959 36.3423C308.051 37.8804 306.747 39.1841 305.048 40.2534C303.363 41.3081 301.327 42.1138 298.939 42.6704C296.552 43.2124 293.893 43.4834 290.963 43.4834C289.03 43.4834 287.14 43.3589 285.294 43.1099C283.449 42.8755 281.676 42.5386 279.977 42.0991C278.292 41.645 276.681 41.1104 275.143 40.4951C273.62 39.8652 272.206 39.1768 270.902 38.4297L274.616 32.7827Z" fill="#F8E026"/>
</g>
<defs>
<filter id="filter0_d_1_2" x="0" y="0" width="638" height="63" filterUnits="userSpaceOnUse" color-interpolation-filters="sRGB">
<feFlood flood-opacity="0" result="BackgroundImageFix"/>
<feColorMatrix in="SourceAlpha" type="matrix" values="0 0 0 0 0 0 0 0 0 0 0 0 0 0 0 0 0 0 127 0" result="hardAlpha"/>
<feOffset dy="4"/>
<feGaussianBlur stdDeviation="2"/>
<feComposite in2="hardAlpha" operator="out"/>
<feColorMatrix type="matrix" values="0 0 0 0 0 0 0 0 0 0 0 0 0 0 0 0 0 0 0.25 0"/>
<feBlend mode="normal" in2="BackgroundImageFix" result="effect1_dropShadow_1_2"/>
<feBlend mode="normal" in="SourceGraphic" in2="effect1_dropShadow_1_2" result="shape"/>
</filter>
<clipPath id="clip0_1_2">
<rect width="630" height="55" fill="white" transform="translate(4)"/>
</clipPath>
</defs>
</svg>
